<svg xmlns="http://www.w3.org/2000/svg" viewBox="0 0 183.56 40.02"><defs><style>.cls-1{fill:#00dc82;}.cls-2{fill:#80eec0;}.cls-2,.cls-3{fill-rule:evenodd;}.cls-3{fill:#a7ff74;}</style></defs><g id="Layer_2" data-name="Layer 2"><g id="Layer_1-2" data-name="Layer 1"><path class="cls-1" d="M28.42,12.49a3.89,3.89,0,0,1,5.44-.8,4,4,0,0,1,.8.8l15.1,22.82C51.15,37.4,49.41,40,46.64,40H16.43c-2.77,0-4.5-2.62-3.11-4.71Z"/><path class="cls-2" d="M26.37,2.16a4.37,4.37,0,0,0-7.54,0L.58,33.54a4.32,4.32,0,0,0,1.58,5.9A4.23,4.23,0,0,0,4.35,40H18.59a4.15,4.15,0,0,1-.87-5.27l13.82-23.7Z"/><path class="cls-3" d="M36.71,2.16a4.37,4.37,0,0,1,6-1.56,4.48,4.48,0,0,1,1.56,1.56L62.5,33.54a4.32,4.32,0,0,1-1.58,5.9,4.23,4.23,0,0,1-2.19.58H44.48a4.19,4.19,0,0,0,.88-5.27L31.54,11.05Z"/><path d="M100.13,28.51c-.15-3.13-.31-6.9-.29-10.2h-.1c-.8,3-1.82,6.25-2.87,9.32L93.31,38.12H89.9L86.69,27.77c-1-3.11-1.82-6.41-2.46-9.46h-.08c-.1,3.17-.25,7.05-.43,10.35l-.54,9.75H79.05l1.61-24.26h5.82l3.16,9.74c.88,2.87,1.65,5.75,2.24,8.45H92c.65-2.65,1.49-5.61,2.43-8.46l3.36-9.73h5.75l1.39,24.26H100.6Z"/><path d="M112.55,30.88c.12,3.17,2.58,4.56,5.42,4.56a13.38,13.38,0,0,0,4.83-.81l.66,3a16,16,0,0,1-6.13,1.11c-5.68,0-9-3.52-9-8.88,0-4.84,2.94-9.42,8.57-9.42s7.55,4.69,7.55,8.53a9.8,9.8,0,0,1-.15,1.86Zm7.71-3.09c0-1.63-.68-4.27-3.65-4.27-2.73,0-3.86,2.47-4.06,4.27Z"/><path d="M130.7,20.89l2.84,8.9c.5,1.54.87,3,1.2,4.38h.1c.33-1.45.72-2.83,1.19-4.38l2.78-8.9h4.66l-6.69,17.52h-4.37l-6.5-17.52Z"/><path d="M149.56,20.89l2.84,8.9c.5,1.54.87,3,1.2,4.38h.11c.32-1.45.71-2.83,1.19-4.38l2.77-8.9h4.66l-6.69,17.52h-4.36l-6.51-17.52Z"/><path d="M169.75,16a2.35,2.35,0,0,1-2.53,2.39A2.39,2.39,0,1,1,169.75,16Zm-4.69,22.43V20.89h4.43V38.41Z"/><path d="M179.34,15.87v5h4.22v3.3h-4.22v7.73c0,2.15.57,3.24,2.27,3.24a6.51,6.51,0,0,0,1.72-.2l.09,3.37a9.94,9.94,0,0,1-3.23.46,5.11,5.11,0,0,1-3.8-1.44c-1-1-1.39-2.62-1.39-4.92V24.19h-2.5v-3.3H175v-4Z"/></g></g></svg>