<svg xmlns="http://www.w3.org/2000/svg" viewBox="0 0 210.75 40.02"><defs><style>.cls-1{fill:#0f1400;}.cls-2{fill:#00dc82;}.cls-3{fill:#80eec0;}.cls-3,.cls-4{fill-rule:evenodd;}.cls-4{fill:#a7ff74;}</style></defs><g id="Layer_2" data-name="Layer 2"><g id="Layer_1-2" data-name="Layer 1"><path class="cls-1" d="M99.51,27c-.19-4.18-.41-9.21-.38-13.61H99c-1.07,4-2.42,8.33-3.81,12.42l-4.75,14H85.88L81.59,26c-1.27-4.15-2.42-8.54-3.27-12.61h-.11c-.14,4.23-.33,9.4-.58,13.8l-.72,13H71.4L73.55,7.82h7.77l4.22,13c1.16,3.82,2.2,7.66,3,11.26h.14c.87-3.53,2-7.48,3.24-11.29l4.48-13H104l1.86,32.36h-5.76Z" transform="translate(0 -1.16)"/><path class="cls-1" d="M116.08,30.13c.16,4.23,3.44,6.08,7.22,6.08a17.72,17.72,0,0,0,6.45-1.08l.87,4.07a21.11,21.11,0,0,1-8.17,1.48c-7.58,0-12-4.69-12-11.85,0-6.45,3.92-12.55,11.43-12.55s10.07,6.24,10.07,11.36a12,12,0,0,1-.21,2.49ZM126.36,26c0-2.17-.92-5.7-4.88-5.7-3.63,0-5.15,3.31-5.41,5.7Z" transform="translate(0 -1.16)"/><path class="cls-1" d="M140.27,16.81l3.79,11.86c.67,2.06,1.16,3.94,1.6,5.84h.14c.44-1.93,1-3.76,1.59-5.84l3.7-11.86h6.21l-8.92,23.37h-5.82l-8.68-23.37Z" transform="translate(0 -1.16)"/><path class="cls-1" d="M165.42,16.81l3.79,11.86c.67,2.06,1.16,3.94,1.6,5.84H171c.44-1.93,1-3.76,1.59-5.84l3.7-11.86h6.21l-8.92,23.37h-5.82L159,16.81Z" transform="translate(0 -1.16)"/><path class="cls-1" d="M192.34,10.27a3.31,3.31,0,0,1-6.61,0,3.31,3.31,0,0,1,6.61,0Zm-6.26,29.91V16.81H192V40.18Z" transform="translate(0 -1.16)"/><path class="cls-1" d="M205.13,10.11v6.7h5.62v4.4h-5.62V31.52c0,2.86.76,4.31,3,4.31a9.17,9.17,0,0,0,2.3-.25l.12,4.49a13.06,13.06,0,0,1-4.3.61,6.8,6.8,0,0,1-5.08-1.93c-1.27-1.34-1.85-3.49-1.85-6.55v-11H196v-4.4h3.34v-5.3Z" transform="translate(0 -1.16)"/><path class="cls-2" d="M28.43,13.65a3.89,3.89,0,0,1,6.24,0l15.1,22.82c1.39,2.09-.35,4.71-3.12,4.71H16.44c-2.77,0-4.5-2.62-3.11-4.71Z" transform="translate(0 -1.16)"/><path class="cls-3" d="M26.38,3.32a4.37,4.37,0,0,0-7.54,0L.59,34.7a4.32,4.32,0,0,0,3.77,6.48H18.6a4.16,4.16,0,0,1-.87-5.27l13.82-23.7Z" transform="translate(0 -1.16)"/><path class="cls-4" d="M36.72,3.32a4.37,4.37,0,0,1,7.54,0L62.51,34.7a4.32,4.32,0,0,1-3.77,6.48H44.49a4.18,4.18,0,0,0,.88-5.27L31.55,12.21Z" transform="translate(0 -1.16)"/></g></g></svg>