<?xml version="1.0" encoding="utf-8"?>
<!-- Generator: Adobe Illustrator 24.1.2, SVG Export Plug-In . SVG Version: 6.00 Build 0)  -->
<svg version="1.1" id="Layer_1" xmlns="http://www.w3.org/2000/svg" xmlns:xlink="http://www.w3.org/1999/xlink" x="0px" y="0px"
	 viewBox="0 0 236.6 63.5" style="enable-background:new 0 0 236.6 63.5;" xml:space="preserve">
<style type="text/css">
	.st0{fill:#FFFFFF;}
	.st1{fill:#00DC82;}
	.st2{fill-rule:evenodd;clip-rule:evenodd;fill:#80EEC0;}
	.st3{fill-rule:evenodd;clip-rule:evenodd;fill:#A7FF74;}
</style>
<g>
	<path class="st0" d="M113.7,39.7c-0.2-4.2-0.4-9.2-0.4-13.6h-0.1c-1.1,4-2.4,8.3-3.8,12.4l-4.8,14H100l-4.3-13.8
		c-1.3-4.2-2.4-8.5-3.3-12.6h-0.1c-0.1,4.2-0.3,9.4-0.6,13.8l-0.7,13h-5.5l2.2-32.4h7.8l4.2,13c1.2,3.8,2.2,7.7,3,11.3h0.1
		c0.9-3.5,2-7.5,3.2-11.3l4.5-13h7.6l1.9,32.4h-5.8L113.7,39.7z"/>
	<path class="st0" d="M130.2,42.8c0.2,4.2,3.4,6.1,7.2,6.1c2.2,0,4.4-0.3,6.4-1.1l0.9,4.1c-2.6,1-5.4,1.5-8.2,1.5
		c-7.6,0-12-4.7-12-11.9c0-6.4,3.9-12.6,11.4-12.6c7.5,0,10.1,6.2,10.1,11.4c0,0.8-0.1,1.7-0.2,2.5L130.2,42.8z M140.5,38.7
		c0-2.2-0.9-5.7-4.9-5.7c-3.6,0-5.1,3.3-5.4,5.7H140.5z"/>
	<path class="st0" d="M154.4,29.5l3.8,11.9c0.7,2.1,1.2,3.9,1.6,5.8h0.1c0.4-1.9,1-3.8,1.6-5.8l3.7-11.9h6.2l-8.9,23.4h-5.8
		L148,29.5H154.4z"/>
	<path class="st0" d="M179.6,29.5l3.8,11.9c0.7,2.1,1.2,3.9,1.6,5.8h0.2c0.4-1.9,1-3.8,1.6-5.8l3.7-11.9h6.2l-8.9,23.4h-5.8
		l-8.8-23.4H179.6z"/>
	<path class="st0" d="M206.5,23c-0.1,1.8-1.7,3.2-3.5,3.1c-1.7-0.1-3-1.4-3.1-3.1c0.1-1.8,1.7-3.2,3.5-3.1
		C205.1,19.9,206.4,21.3,206.5,23z M200.2,52.9V29.5h5.9v23.4H200.2z"/>
	<path class="st0" d="M219.3,22.8v6.7h5.6v4.4h-5.6v10.3c0,2.9,0.8,4.3,3,4.3c0.8,0,1.5-0.1,2.3-0.3l0.1,4.5
		c-1.4,0.4-2.8,0.6-4.3,0.6c-1.9,0.1-3.7-0.6-5.1-1.9c-1.3-1.3-1.9-3.5-1.9-6.5v-11h-3.3v-4.4h3.3v-5.3L219.3,22.8z"/>
	<path class="st1" d="M32.6,26.4c1.3-1.7,3.7-2.1,5.4-0.8c0.3,0.2,0.6,0.5,0.8,0.8l15.1,22.8c1.4,2.1-0.3,4.7-3.1,4.7H20.6
		c-2.8,0-4.5-2.6-3.1-4.7L32.6,26.4z"/>
	<path class="st2" d="M30.5,16c-1.2-2.1-3.9-2.8-6-1.6c-0.6,0.4-1.2,0.9-1.6,1.6L4.8,47.4c-1.2,2.1-0.5,4.7,1.6,5.9
		c0.7,0.4,1.4,0.6,2.2,0.6h14.2c-1.5-1.3-1.9-3.5-0.9-5.3l13.8-23.7L30.5,16z"/>
	<path class="st3" d="M40.9,16c1.2-2.1,3.9-2.8,6-1.6c0.6,0.4,1.2,0.9,1.6,1.6l18.2,31.4c1.2,2.1,0.5,4.7-1.6,5.9
		c-0.7,0.4-1.4,0.6-2.2,0.6H48.7c1.5-1.3,1.9-3.5,0.9-5.3L35.7,24.9L40.9,16z"/>
</g>
</svg>
