<?xml version="1.0" encoding="UTF-8" standalone="no"?>
<svg
   xmlns:dc="http://purl.org/dc/elements/1.1/"
   xmlns:cc="http://creativecommons.org/ns#"
   xmlns:rdf="http://www.w3.org/1999/02/22-rdf-syntax-ns#"
   xmlns:svg="http://www.w3.org/2000/svg"
   xmlns="http://www.w3.org/2000/svg"
   height="212.64189"
   width="335.07709"
   id="svg14"
   version="1.1"
   viewBox="0 0 335.07707 212.64189">
  <metadata
     id="metadata18">
    <rdf:RDF>
      <cc:Work
         rdf:about="">
        <dc:format>image/svg+xml</dc:format>
        <dc:type
           rdf:resource="http://purl.org/dc/dcmitype/StillImage" />
        <dc:title></dc:title>
      </cc:Work>
    </rdf:RDF>
  </metadata>
  <defs
     id="defs4">
    <style
       id="style2">.cls-1{fill:#00dc82;}.cls-2{fill:#80eec0;}.cls-2,.cls-3{fill-rule:evenodd;}.cls-3{fill:#a7ff74;}</style>
  </defs>
  <g
     transform="matrix(5.3121836,0,0,5.3121836,-0.00772721,0.04662375)"
     data-name="Layer 2"
     id="Layer_2">
    <g
       data-name="Layer 1"
       id="Layer_1-2">
      <path
         style="fill:#00dc82"
         id="path6"
         d="m 28.42,12.49 a 3.89,3.89 0 0 1 5.44,-0.8 4,4 0 0 1 0.8,0.8 l 15.1,22.82 C 51.15,37.4 49.41,40 46.64,40 H 16.43 c -2.77,0 -4.5,-2.62 -3.11,-4.71 z"
         class="cls-1" />
      <path
         style="fill:#80eec0;fill-rule:evenodd"
         id="path8"
         d="m 26.37,2.16 a 4.37,4.37 0 0 0 -7.54,0 L 0.58,33.54 a 4.32,4.32 0 0 0 1.58,5.9 4.23,4.23 0 0 0 2.19,0.56 h 14.24 a 4.15,4.15 0 0 1 -0.87,-5.27 l 13.82,-23.7 z"
         class="cls-2" />
      <path
         style="fill:#a7ff74;fill-rule:evenodd"
         id="path10"
         d="m 36.71,2.16 a 4.37,4.37 0 0 1 6,-1.56 4.48,4.48 0 0 1 1.56,1.56 L 62.5,33.54 a 4.32,4.32 0 0 1 -1.58,5.9 4.23,4.23 0 0 1 -2.19,0.58 H 44.48 a 4.19,4.19 0 0 0 0.88,-5.27 L 31.54,11.05 Z"
         class="cls-3" />
    </g>
  </g>
</svg>
