<?xml version="1.0" encoding="UTF-8" standalone="no"?>
<svg
   xmlns:dc="http://purl.org/dc/elements/1.1/"
   xmlns:cc="http://creativecommons.org/ns#"
   xmlns:rdf="http://www.w3.org/1999/02/22-rdf-syntax-ns#"
   xmlns:svg="http://www.w3.org/2000/svg"
   xmlns="http://www.w3.org/2000/svg"
   xmlns:sodipodi="http://sodipodi.sourceforge.net/DTD/sodipodi-0.dtd"
   xmlns:inkscape="http://www.inkscape.org/namespaces/inkscape"
   viewBox="0 0 335.07707 212.64189"
   version="1.1"
   id="svg14"
   sodipodi:docname="short.svg"
   width="335.07709"
   height="212.64189"
   inkscape:version="0.92.4 (5da689c313, 2019-01-14)">
  <metadata
     id="metadata18">
    <rdf:RDF>
      <cc:Work
         rdf:about="">
        <dc:format>image/svg+xml</dc:format>
        <dc:type
           rdf:resource="http://purl.org/dc/dcmitype/StillImage" />
      </cc:Work>
    </rdf:RDF>
  </metadata>
  <sodipodi:namedview
     pagecolor="#ffffff"
     bordercolor="#666666"
     borderopacity="1"
     objecttolerance="10"
     gridtolerance="10"
     guidetolerance="10"
     inkscape:pageopacity="0"
     inkscape:pageshadow="2"
     inkscape:window-width="2256"
     inkscape:window-height="1398"
     id="namedview16"
     showgrid="false"
     inkscape:zoom="1"
     inkscape:cx="-160.96145"
     inkscape:cy="75.855625"
     inkscape:window-x="-11"
     inkscape:window-y="-11"
     inkscape:window-maximized="1"
     inkscape:current-layer="svg14" />
  <defs
     id="defs4">
    <style
       id="style2">.cls-1{fill:#00dc82;}.cls-2{fill:#80eec0;}.cls-2,.cls-3{fill-rule:evenodd;}.cls-3{fill:#a7ff74;}</style>
  </defs>
  <g
     id="Layer_2"
     data-name="Layer 2"
     transform="matrix(5.3121836,0,0,5.3121836,-0.00772721,0.04662375)">
    <g
       id="Layer_1-2"
       data-name="Layer 1">
      <path
         class="cls-1"
         d="m 28.42,12.49 a 3.89,3.89 0 0 1 5.44,-0.8 4,4 0 0 1 0.8,0.8 l 15.1,22.82 C 51.15,37.4 49.41,40 46.64,40 H 16.43 c -2.77,0 -4.5,-2.62 -3.11,-4.71 z"
         id="path6"
         inkscape:connector-curvature="0"
         style="fill:#00dc82" />
      <path
         class="cls-2"
         d="m 26.37,2.16 a 4.37,4.37 0 0 0 -7.54,0 L 0.58,33.54 a 4.32,4.32 0 0 0 1.58,5.9 4.23,4.23 0 0 0 2.19,0.56 h 14.24 a 4.15,4.15 0 0 1 -0.87,-5.27 l 13.82,-23.7 z"
         id="path8"
         inkscape:connector-curvature="0"
         style="fill:#80eec0;fill-rule:evenodd" />
      <path
         class="cls-3"
         d="m 36.71,2.16 a 4.37,4.37 0 0 1 6,-1.56 4.48,4.48 0 0 1 1.56,1.56 L 62.5,33.54 a 4.32,4.32 0 0 1 -1.58,5.9 4.23,4.23 0 0 1 -2.19,0.58 H 44.48 a 4.19,4.19 0 0 0 0.88,-5.27 L 31.54,11.05 Z"
         id="path10"
         inkscape:connector-curvature="0"
         style="fill:#a7ff74;fill-rule:evenodd" />
    </g>
  </g>
</svg>
