<?xml version="1.0" encoding="UTF-8" standalone="no"?>
<!-- Generator: Adobe Illustrator 24.1.2, SVG Export Plug-In . SVG Version: 6.00 Build 0)  -->

<svg
   xmlns:dc="http://purl.org/dc/elements/1.1/"
   xmlns:cc="http://creativecommons.org/ns#"
   xmlns:rdf="http://www.w3.org/1999/02/22-rdf-syntax-ns#"
   xmlns:svg="http://www.w3.org/2000/svg"
   xmlns="http://www.w3.org/2000/svg"
   xmlns:sodipodi="http://sodipodi.sourceforge.net/DTD/sodipodi-0.dtd"
   xmlns:inkscape="http://www.inkscape.org/namespaces/inkscape"
   version="1.1"
   id="Layer_1"
   x="0px"
   y="0px"
   viewBox="0 0 187.52617 35.426163"
   xml:space="preserve"
   sodipodi:docname="white.svg"
   inkscape:version="0.92.4 (5da689c313, 2019-01-14)"
   width="187.52617"
   height="35.426163"><metadata
   id="metadata29"><rdf:RDF><cc:Work
       rdf:about=""><dc:format>image/svg+xml</dc:format><dc:type
         rdf:resource="http://purl.org/dc/dcmitype/StillImage" /></cc:Work></rdf:RDF></metadata><defs
   id="defs27" /><sodipodi:namedview
   pagecolor="#ffffff"
   bordercolor="#666666"
   borderopacity="1"
   objecttolerance="10"
   gridtolerance="10"
   guidetolerance="10"
   inkscape:pageopacity="0"
   inkscape:pageshadow="2"
   inkscape:window-width="2256"
   inkscape:window-height="1470"
   id="namedview25"
   showgrid="false"
   inkscape:zoom="2.412854"
   inkscape:cx="10.045126"
   inkscape:cy="19.699998"
   inkscape:window-x="-11"
   inkscape:window-y="-11"
   inkscape:window-maximized="1"
   inkscape:current-layer="Layer_1" />
<style
   type="text/css"
   id="style2">
	.st0{fill:#00DC82;}
	.st1{fill-rule:evenodd;clip-rule:evenodd;fill:#80EEC0;}
	.st2{fill-rule:evenodd;clip-rule:evenodd;fill:#A7FF74;}
	.st3{fill:#FFFFFF;}
</style>
<g
   id="g10"
   transform="translate(-1.9738379,-4.2738379)">
	<path
   class="st0"
   d="m 27.2,15.3 c 1.1,-1.5 3.3,-1.8 4.8,-0.7 0.3,0.2 0.5,0.4 0.7,0.7 l 13.4,20.2 c 1.2,1.9 -0.3,4.2 -2.8,4.2 H 16.5 c -2.5,0 -4,-2.3 -2.8,-4.2 z"
   id="path4"
   inkscape:connector-curvature="0"
   style="fill:#00dc82" />
	<path
   class="st1"
   d="M 25.3,6.2 C 24.2,4.4 21.8,3.7 20,4.8 19.4,5.1 19,5.6 18.6,6.2 L 2.5,34 c -1.1,1.8 -0.4,4.2 1.4,5.2 0.6,0.3 1.3,0.5 1.9,0.5 H 18.4 C 17,38.5 16.7,36.6 17.6,35 L 29.8,14 Z"
   id="path6"
   inkscape:connector-curvature="0"
   style="clip-rule:evenodd;fill:#80eec0;fill-rule:evenodd" />
	<path
   class="st2"
   d="m 34.5,6.2 c 1.1,-1.8 3.4,-2.5 5.3,-1.4 0,0 0,0 0,0 0.6,0.3 1,0.8 1.4,1.4 L 57.3,34 c 1.1,1.8 0.4,4.2 -1.4,5.2 -0.6,0.3 -1.3,0.5 -1.9,0.5 H 41.4 c 1.3,-1.2 1.7,-3.1 0.8,-4.7 L 30,14 Z"
   id="path8"
   inkscape:connector-curvature="0"
   style="clip-rule:evenodd;fill:#a7ff74;fill-rule:evenodd" />
</g>





<g
   id="g842"
   transform="translate(4.026162,-4.2738379)"><path
     id="path12"
     d="M 91.8,27.5 C 91.6,24.1 91.5,19.9 91.5,16.3 h -0.1 c -0.9,3.3 -2,6.9 -3.2,10.2 L 84.3,38 H 80.6 L 77,26.7 c -1.1,-3.4 -2,-7 -2.7,-10.4 h -0.1 c -0.1,3.5 -0.3,7.8 -0.5,11.4 l -0.6,10.7 h -4.5 l 1.8,-26.7 h 6.4 l 3.5,10.7 c 1,3.2 1.8,6.3 2.5,9.3 h 0.1 c 0.7,-2.9 1.6,-6.2 2.7,-9.3 l 3.7,-10.7 h 6.3 l 1.5,26.7 h -4.8 z"
     class="st3"
     inkscape:connector-curvature="0"
     style="fill:#ffffff" /><path
     id="path14"
     d="m 105.5,30.1 c 0.1,3.5 2.8,5 6,5 1.8,0 3.6,-0.3 5.3,-0.9 l 0.7,3.3 c -2.1,0.8 -4.4,1.3 -6.7,1.2 -6.2,0 -9.9,-3.9 -9.9,-9.8 0,-5.3 3.2,-10.4 9.4,-10.4 6.2,0 8.3,5.2 8.3,9.4 0,0.7 0,1.4 -0.2,2 z m 8.5,-3.4 c 0,-1.8 -0.7,-4.7 -4,-4.7 -3,0 -4.2,2.7 -4.5,4.7 z"
     class="st3"
     inkscape:connector-curvature="0"
     style="fill:#ffffff" /><path
     id="path16"
     d="m 125.4,19.1 3.1,9.8 c 0.5,1.7 1,3.3 1.3,4.8 h 0.1 c 0.4,-1.6 0.8,-3.1 1.3,-4.8 l 3.1,-9.8 h 5.1 L 132,38.4 h -4.8 l -7.1,-19.3 z"
     class="st3"
     inkscape:connector-curvature="0"
     style="fill:#ffffff" /><path
     id="path18"
     d="m 146.2,19.1 3.1,9.8 c 0.5,1.7 1,3.3 1.3,4.8 h 0.1 c 0.4,-1.6 0.8,-3.1 1.3,-4.8 l 3,-9.8 h 5.1 l -7.4,19.3 h -4.8 l -7.2,-19.3 z"
     class="st3"
     inkscape:connector-curvature="0"
     style="fill:#ffffff" /><path
     id="path20"
     d="m 168.4,13.7 c 0,1.4 -1.1,2.6 -2.5,2.6 -0.1,0 -0.2,0 -0.3,0 -1.4,-0.1 -2.6,-1.3 -2.5,-2.8 0.1,-1.4 1.3,-2.6 2.8,-2.5 1.4,0.2 2.5,1.3 2.5,2.7 z m -5.2,24.7 V 19.1 h 4.9 v 19.3 z"
     class="st3"
     inkscape:connector-curvature="0"
     style="fill:#ffffff" /><path
     id="path22"
     d="m 178.9,13.6 v 5.5 h 4.6 v 3.6 h -4.6 v 8.5 c 0,2.4 0.6,3.6 2.5,3.6 0.6,0 1.3,-0.1 1.9,-0.2 l 0.1,3.7 c -1.1,0.4 -2.3,0.5 -3.6,0.5 -1.6,0.1 -3.1,-0.5 -4.2,-1.6 -1.1,-1.1 -1.5,-2.9 -1.5,-5.4 v -9 h -2.7 v -3.6 h 2.7 v -4.4 z"
     class="st3"
     inkscape:connector-curvature="0"
     style="fill:#ffffff" /></g>
</svg>